<?xml version="1.0" standalone="no"?>
<!DOCTYPE svg PUBLIC "-//W3C//DTD SVG 20010904//EN"
 "http://www.w3.org/TR/2001/REC-SVG-20010904/DTD/svg10.dtd">
<svg version="1.0" xmlns="http://www.w3.org/2000/svg"
 width="500.000000pt" height="500.000000pt" viewBox="0 0 500.000000 500.000000"
 preserveAspectRatio="xMidYMid meet">
<metadata>
Created by potrace 1.14, written by Peter Selinger 2001-2017
</metadata>
<g transform="translate(0.000000,500.000000) scale(0.100000,-0.100000)"
fill="#000000" stroke="none">
<path d="M0 2500 l0 -2500 2500 0 2500 0 0 2500 0 2500 -2500 0 -2500 0 0
-2500z m2454 781 c3 -4 -6 -19 -20 -32 -57 -53 -71 -137 -34 -209 28 -55 72
-83 140 -88 63 -5 98 8 143 53 22 22 28 25 33 12 8 -23 -31 -91 -71 -125 -69
-56 -158 -67 -240 -28 -60 28 -87 56 -114 116 -45 99 -10 215 83 278 49 32 71
39 80 23z m206 -51 l28 -30 -30 -31 c-24 -23 -33 -27 -39 -17 -5 7 -9 16 -9
20 0 4 -9 10 -20 13 -25 8 -26 22 -1 30 11 3 23 15 26 26 8 25 12 24 45 -11z
m506 -65 c-2 -7 -1 -67 4 -131 11 -142 6 -155 -68 -199 -59 -34 -72 -49 -72
-82 0 -32 23 -29 105 15 44 23 71 44 74 57 2 10 10 30 19 43 l15 23 27 -26
c30 -28 42 -32 34 -10 -4 8 -2 15 4 15 5 0 12 -7 16 -15 7 -20 27 -19 71 2 31
15 37 15 45 3 7 -12 13 -11 32 8 22 20 25 21 41 5 25 -26 32 -8 18 45 -24 83
-25 95 -11 90 8 -2 20 -20 27 -39 13 -34 13 -34 7 16 -7 62 -19 85 -43 85 -26
0 -31 -18 -20 -75 7 -38 6 -53 -7 -72 -15 -24 -16 -24 -42 -7 -25 16 -26 16
-40 -4 -25 -39 -81 -23 -83 23 0 15 -5 11 -16 -15 l-15 -35 -19 24 c-10 13
-19 29 -19 37 0 27 -20 14 -21 -13 -1 -63 -17 16 -30 146 -9 95 -9 135 -1 143
8 8 15 1 26 -26 8 -20 17 -36 20 -36 18 0 39 17 47 37 8 21 12 23 24 13 19
-16 19 -34 0 -26 -8 3 -15 1 -15 -4 0 -5 -14 -17 -31 -26 -26 -13 -33 -14 -40
-2 -6 9 -9 3 -9 -18 0 -56 13 -154 20 -154 11 0 32 55 28 76 -2 11 4 20 15 22
23 5 22 -19 -4 -62 -22 -37 -22 -77 -2 -83 8 -3 17 13 24 41 15 59 29 68 29
19 0 -49 11 -66 41 -61 23 3 24 6 22 71 0 37 2 67 7 67 4 0 14 -25 22 -57 12
-52 38 -86 54 -71 3 4 1 21 -5 39 -18 52 -14 107 9 119 46 24 90 -36 90 -122
-1 -106 -31 -176 -65 -148 -12 10 -21 10 -42 1 -17 -8 -29 -9 -36 -2 -6 6 -22
3 -46 -10 -48 -26 -80 -24 -112 7 -27 26 -49 26 -49 0 0 -7 9 -21 20 -31 33
-30 26 -46 -18 -39 -32 5 -49 0 -94 -25 -30 -17 -64 -31 -75 -31 -28 0 -46 25
-40 55 2 14 2 24 -2 23 -46 -25 -62 -30 -76 -25 -22 9 -34 47 -23 76 5 13 7
26 4 28 -2 3 -46 -9 -98 -26 -153 -49 -256 -65 -418 -65 -129 0 -153 3 -217
25 -56 20 -73 22 -73 12 0 -8 -6 -13 -12 -11 -21 4 -56 -24 -51 -41 4 -12 3
-13 -4 -3 -14 19 -40 5 -49 -26 l-7 -27 -6 25 -7 25 -19 -28 c-12 -18 -21 -24
-25 -17 -5 9 -16 8 -38 -4 -56 -29 -48 -16 11 17 32 18 55 36 52 39 -5 5 58
58 70 58 13 0 -8 -22 -39 -41 -43 -26 -29 -24 38 7 55 25 68 45 32 52 -32 7
-62 -7 -160 -73 -121 -82 -148 -93 -181 -71 -27 18 -33 55 -15 101 12 31 8 29
-63 -27 -74 -58 -115 -46 -104 32 5 36 3 39 -13 30 -51 -27 -83 2 -83 74 1 23
-4 49 -9 59 -5 11 -5 17 1 17 6 0 14 -12 17 -26 8 -32 19 -17 27 39 5 35 5 36
-14 26 -12 -6 -23 -8 -26 -5 -3 2 50 32 117 66 67 34 124 59 126 57 3 -2 -30
-23 -73 -45 -109 -57 -114 -62 -118 -108 -1 -21 -6 -47 -10 -56 -11 -28 8 -21
54 19 37 31 42 40 38 67 -4 27 -2 31 17 32 20 2 22 -2 17 -31 -6 -33 -68 -95
-119 -118 -25 -12 -26 -40 -1 -45 27 -5 141 94 155 134 20 57 29 61 63 26 20
-23 38 -32 60 -32 36 0 36 -5 19 137 -6 57 -8 106 -5 110 18 17 29 -22 32
-110 4 -108 10 -137 31 -137 17 0 17 8 2 137 -6 57 -8 106 -4 110 4 4 16 -3
27 -17 l19 -25 6 23 c5 18 24 32 24 17 0 -13 -38 -64 -43 -58 -4 3 -7 -1 -7
-11 0 -15 2 -15 30 -1 16 8 33 22 38 32 10 16 62 28 62 14 0 -14 -28 -33 -39
-27 -5 4 -13 1 -17 -5 -3 -6 -22 -18 -41 -26 -29 -12 -34 -18 -29 -36 3 -12 6
-38 6 -57 1 -62 11 -67 78 -40 33 14 61 30 63 35 3 14 -73 25 -88 13 -6 -5 -9
-16 -6 -24 3 -8 0 -14 -6 -14 -17 0 -13 25 10 54 23 30 38 32 100 12 24 -8 61
-17 82 -21 52 -8 50 -35 -3 -35 -25 0 -73 -15 -128 -39 -84 -39 -87 -41 -90
-76 l-3 -36 51 26 c47 24 50 27 39 48 -12 22 -12 22 9 4 19 -17 22 -17 52 -2
22 11 29 21 26 33 -4 13 0 18 13 18 11 0 17 -4 15 -8 -7 -11 14 -10 38 3 41
22 27 0 -17 -25 -28 -17 -45 -34 -45 -46 0 -10 -5 -22 -11 -26 -9 -5 -10 1 -5
20 6 25 5 26 -13 16 -12 -6 -28 -23 -36 -38 -9 -15 -14 -19 -11 -9 3 10 0 17
-8 17 -20 0 -66 -39 -66 -56 0 -8 -4 -14 -10 -14 -5 0 -7 7 -4 15 4 9 0 15 -9
15 -10 0 -18 13 -23 35 -8 45 -39 49 -49 5 -4 -18 -23 -42 -47 -62 -93 -73
-73 -162 27 -116 26 12 32 23 15 33 -17 11 -11 20 15 21 22 2 24 0 13 -14 -12
-14 -10 -14 11 -2 14 7 53 32 88 56 63 43 116 61 153 51 17 -4 19 -1 14 21 -5
19 -3 24 4 17 6 -5 12 -21 14 -35 2 -20 13 -29 58 -45 76 -27 374 -28 498 -2
78 17 246 72 291 96 20 11 19 12 -5 36 -20 20 -23 29 -14 44 8 16 23 21 73 23
l62 3 -1 55 c-1 37 1 48 6 35 13 -30 12 -79 -2 -93 -9 -9 -7 -13 5 -17 9 -3
24 -7 33 -10 15 -5 15 -7 0 -24 -9 -10 -34 -26 -56 -36 -22 -10 -40 -22 -40
-27 0 -4 -10 -8 -23 -8 -31 0 -62 -24 -77 -59 -25 -62 11 -80 71 -35 19 14 55
36 80 49 71 37 80 49 74 103 -22 205 -25 253 -19 263 9 15 37 -38 30 -56z
m-1426 45 c0 -5 -3 -11 -7 -13 -14 -9 -9 -90 6 -95 9 -3 11 1 7 16 -4 11 -2
23 4 27 16 10 11 -35 -9 -80 l-18 -40 -1 35 c0 19 -5 47 -10 61 -6 15 -8 36
-5 48 5 21 -11 29 -22 11 -8 -13 -200 -110 -217 -110 -7 1 -1 8 15 16 26 14
31 24 28 52 -1 6 3 12 9 12 5 0 10 -9 10 -20 0 -18 3 -19 21 -9 12 6 26 24 32
40 13 32 32 40 22 9 -3 -11 -3 -20 2 -20 14 0 74 40 78 53 6 13 55 20 55 7z
m1354 -13 c-3 -10 0 -24 6 -32 10 -12 9 -15 -4 -15 -9 0 -21 12 -26 26 -14 35
-13 40 10 40 15 0 18 -5 14 -19z m256 13 c0 -5 -4 -10 -10 -10 -5 0 -10 5 -10
10 0 6 5 10 10 10 6 0 10 -4 10 -10z m10 -59 c-41 -21 -86 -41 -100 -45 -14
-3 16 14 65 39 50 24 95 44 100 44 6 0 -24 -17 -65 -38z m-383 10 c-3 -14 -1
-18 9 -14 8 3 14 2 14 -1 0 -9 -111 -58 -117 -52 -3 3 12 13 33 23 26 12 40
26 42 41 2 12 8 22 14 22 6 0 8 -9 5 -19z m73 14 c0 -2 -10 -9 -22 -15 -22
-11 -22 -10 -4 4 21 17 26 19 26 11z m-1018 -17 c-7 -7 -12 -22 -12 -35 0 -13
-5 -23 -11 -23 -6 0 -9 9 -6 20 6 25 6 25 -53 -5 -27 -14 -55 -25 -62 -24 -11
0 138 79 151 79 3 0 0 -5 -7 -12z m1444 -24 c-26 -18 -47 -18 -40 0 5 14 43
26 54 18 3 -2 -4 -10 -14 -18z m-1402 -43 c-6 -6 -24 19 -24 34 1 6 7 1 15 -9
8 -11 12 -22 9 -25z m1333 22 c2 -6 -3 -13 -11 -16 -10 -4 -14 0 -13 14 1 20
18 21 24 2z m-417 -26 c-47 -23 -66 -38 -68 -55 -2 -12 -8 -22 -14 -22 -6 0
-8 9 -5 21 5 19 4 19 -16 6 -12 -8 -23 -26 -25 -41 -2 -14 -8 -26 -13 -26 -11
0 -3 59 10 72 8 9 173 77 186 77 6 0 -19 -14 -55 -32z m-1313 -34 c-11 -11
-17 -13 -17 -5 0 7 5 12 12 12 9 0 9 3 0 12 -7 7 -12 17 -12 22 0 6 8 3 17 -7
16 -16 16 -18 0 -34z m1693 -30 c8 -39 9 -58 1 -66 -15 -15 -25 16 -18 58 3
21 0 40 -8 52 -19 24 -19 39 -1 23 8 -6 20 -36 26 -67z m-313 51 c8 -20 -13
-42 -27 -28 -12 12 -3 44 11 44 5 0 12 -7 16 -16z m-1295 -59 c-2 -14 -8 -22
-13 -19 -5 3 -5 14 1 25 14 26 18 24 12 -6z m-222 -27 c0 -18 -2 -20 -9 -8 -6
8 -7 18 -5 22 9 14 14 9 14 -14z m1373 -54 c-8 -14 -25 -30 -37 -36 -21 -11
-21 -11 -2 10 15 17 16 25 7 36 -10 12 -8 15 11 18 35 6 39 0 21 -28z m-767
-10 c7 -17 8 -37 3 -49 -6 -16 -8 -12 -8 16 -1 23 -7 39 -16 43 -18 6 -21 30
-3 24 7 -3 17 -18 24 -34z m969 -24 c-3 -5 -11 -10 -16 -10 -6 0 -7 5 -4 10 3
6 11 10 16 10 6 0 7 -4 4 -10z m-1274 -33 c-10 -9 -11 -8 -5 6 3 10 9 15 12
12 3 -3 0 -11 -7 -18z m1131 -22 c-4 -26 -22 -45 -22 -25 0 12 18 50 24 50 2
0 1 -11 -2 -25z m228 10 c0 -3 -26 -22 -57 -42 -32 -20 -63 -44 -70 -52 -11
-14 -12 -14 -13 -1 0 23 11 33 75 67 66 36 65 35 65 28z m-1340 -41 c0 -16
-16 -19 -25 -4 -8 13 4 32 16 25 5 -4 9 -13 9 -21z m-40 1 c0 -8 -4 -15 -9
-15 -13 0 -22 16 -14 24 11 11 23 6 23 -9z m1690 -19 c0 -8 -4 -17 -8 -20 -13
-8 -35 11 -28 23 10 16 36 14 36 -3z m-130 -17 c-30 -20 -172 -90 -176 -86 -5
4 167 97 181 97 6 0 3 -5 -5 -11z m71 -6 c-5 -10 -13 -27 -17 -38 -6 -19 -7
-19 -13 3 -6 21 -7 22 -26 7 -26 -19 -107 -57 -112 -51 -4 3 39 29 147 87 24
13 31 10 21 -8z m-1681 -18 c0 -8 -7 -15 -15 -15 -8 0 -15 7 -15 15 0 8 7 15
15 15 8 0 15 -7 15 -15z m-109 -39 c-9 -11 -9 -15 1 -19 7 -3 -1 -6 -19 -6
-17 -1 -34 3 -38 8 -7 12 23 30 49 31 15 0 16 -3 7 -14z m704 -10 c28 -12 69
-44 93 -69 l42 -47 43 47 c23 25 65 57 92 69 44 21 65 24 182 24 156 0 163 -4
163 -102 l0 -58 60 30 c120 61 120 60 120 -237 0 -280 9 -256 -112 -288 l-68
-18 0 -144 c0 -139 -1 -145 -25 -168 -13 -14 -32 -25 -42 -25 -9 0 -106 44
-215 97 l-199 97 -197 -97 c-108 -54 -205 -97 -215 -97 -10 0 -29 11 -42 25
-24 23 -25 29 -25 168 l0 144 -67 18 c-122 32 -113 9 -113 281 0 143 4 243 10
255 15 26 41 24 110 -11 l60 -30 0 58 c0 98 7 102 163 102 117 0 138 -3 182
-24z m795 -4 c0 -5 -7 -9 -15 -9 -8 0 -15 4 -15 9 0 4 7 8 15 8 8 0 15 -4 15
-8z"/>
<path d="M2384 3235 c-47 -49 -59 -87 -52 -165 8 -84 76 -156 154 -165 l39 -5
-40 10 c-51 13 -107 58 -129 104 -38 81 -7 198 66 245 18 11 27 21 19 21 -8 0
-34 -20 -57 -45z"/>
<path d="M2683 2985 c-24 -36 -86 -74 -125 -76 -17 -1 -19 -2 -5 -6 31 -8 85
17 121 58 20 21 36 44 36 49 0 15 -3 12 -27 -25z"/>
<path d="M1647 2975 c-4 -9 5 -22 24 -35 29 -22 31 -47 1 -35 -32 12 -81 -15
-107 -59 -43 -73 -23 -130 30 -89 12 10 38 30 56 45 19 14 59 39 89 55 72 37
80 68 22 78 -23 3 -50 17 -63 31 -26 27 -44 31 -52 9z m108 -85 c-3 -5 -11
-10 -16 -10 -6 0 -7 5 -4 10 3 6 11 10 16 10 6 0 7 -4 4 -10z m-110 -36 c-25
-20 -75 -46 -75 -40 0 5 82 56 90 56 3 -1 -4 -8 -15 -16z"/>
<path d="M2969 2971 c17 -31 30 -35 72 -21 54 18 44 34 -25 38 -55 3 -57 2
-47 -17z"/>
<path d="M2075 2678 c-3 -8 -4 -79 -3 -158 l3 -145 125 -5 c115 -5 129 -7 178
-35 30 -16 62 -39 72 -52 10 -13 21 -23 24 -23 3 0 6 60 6 134 l0 134 -32 48
c-19 27 -54 62 -82 79 -46 28 -57 30 -168 34 -94 2 -119 0 -123 -11z"/>
<path d="M2677 2675 c-57 -21 -96 -53 -128 -103 -28 -45 -29 -49 -29 -184 l0
-139 35 36 c66 65 105 79 245 85 l125 5 0 155 0 155 -105 2 c-70 1 -118 -3
-143 -12z"/>
<path d="M1890 2360 l0 -219 48 -14 c26 -8 163 -47 305 -88 l257 -73 258 73
c141 41 278 80 305 88 l47 14 0 219 c0 121 -2 220 -5 220 -3 0 -32 -13 -64
-30 l-59 -29 -4 -127 c-4 -149 -7 -154 -104 -154 -142 0 -222 -43 -271 -146
-26 -55 -40 -64 -105 -64 -51 0 -84 17 -99 52 -41 99 -110 145 -235 154 -110
8 -119 10 -132 39 -7 15 -12 73 -12 135 l0 110 -60 30 c-33 16 -62 30 -65 30
-3 0 -5 -99 -5 -220z"/>
<path d="M2072 2309 c3 -23 7 -24 99 -30 79 -4 104 -10 141 -32 53 -31 102
-84 123 -132 13 -33 16 -35 64 -35 49 0 51 1 66 37 24 57 61 100 112 130 40
23 62 28 147 32 95 6 101 7 104 29 3 21 1 22 -82 22 -164 0 -242 -36 -301
-138 -16 -28 -37 -51 -46 -52 -8 0 -23 15 -31 34 -26 54 -79 108 -128 129 -34
15 -74 22 -158 25 l-114 5 4 -24z"/>
<path d="M2070 1906 c0 -123 2 -136 18 -135 9 0 91 37 182 83 120 61 159 85
145 89 -11 3 -85 24 -165 47 -80 23 -153 43 -162 46 -17 5 -18 -6 -18 -130z"/>
<path d="M2780 1999 c-74 -22 -153 -44 -175 -50 l-40 -11 165 -84 c91 -45 173
-83 183 -83 15 -1 17 12 17 134 0 74 -3 135 -7 134 -5 0 -69 -18 -143 -40z"/>
</g>
</svg>
